<?xml version="1.0" encoding="utf-8"?>
<!-- Generator: Adobe Illustrator 25.0.1, SVG Export Plug-In . SVG Version: 6.00 Build 0)  -->
<svg version="1.1" id="Слой_1" xmlns="http://www.w3.org/2000/svg" xmlns:xlink="http://www.w3.org/1999/xlink" x="0px" y="0px"
	 viewBox="0 0 503 565" style="enable-background:new 0 0 503 565;" xml:space="preserve">
<style type="text/css">
	.st0{fill:#FFFFFF;}
	.st1{fill:#FDCA00;}
	.st2{fill:#2E343B;}
</style>
<g>
	<path class="st0" d="M249.2,513.7c95.1,0,182.8,19.2,253.3,51.5V0H0.3v565.2C70,534.1,156.1,513.7,249.2,513.7"/>
	<rect x="14.9" y="14.6" class="st1" width="472.9" height="215.9"/>
	<path class="st1" d="M249.3,412.1c89.6,0,172.2,18.1,238.6,48.5V330H14.9v130.6C80.6,431.3,161.6,412.1,249.3,412.1"/>
	<path class="st0" d="M89.6,187c-0.3,0.9-0.6,1.9-0.8,2.8c-0.2-1-0.5-1.9-0.8-2.8l-8.7-27.4H59.2l20,49.7v25.1h19.2v-24.9l20-49.9
		h-20L89.6,187z"/>
	<path class="st0" d="M147.8,218.7c-0.8,0-1.9,0-1.9-3.6v-12h22.2v-14.8h-22.2v-9.1c0-3.5,1.1-3.5,1.9-3.5h23.3l0.9-14.9l-1.6-0.2
		c-8.3-1-19.2-1-28.9-1c-8.8,0-14.8,6.5-15,16.1v43.2c0.1,9.6,6.1,16.1,15,16.1c9.6,0,20.6,0,28.9-1l1.6-0.2l-0.9-14.8H147.8z"/>
	<path class="st0" d="M207,218.2c-1,0-2.3,0-2.3-3.6v-55h-19.2v58.2c0,10.3,6,16.9,15.2,16.9c8.6,0,18.4-0.1,26.9-1.1l1.6-0.2
		l-0.9-15.2H207z"/>
	<path class="st0" d="M262.1,218.2c-1,0-2.3,0-2.3-3.6v-55h-19.2v58.2c0,10.3,6,16.9,15.2,16.9c8.6,0,18.4-0.1,26.9-1.1l1.6-0.2
		l-0.9-15.2H262.1z"/>
	<path class="st0" d="M320.7,158.3c-20.7,0-27.7,9.8-27.7,38.8c0,29,7,38.7,27.7,38.7c20.8,0,27.8-9.8,27.8-38.7
		C348.5,168.1,341.5,158.3,320.7,158.3 M320.8,219.7c-5.4,0-7.7-3.1-7.7-22.6c0-19.4,2.3-22.6,7.7-22.6c5.4,0,7.7,3.1,7.7,22.6
		C328.5,216.5,326.3,219.7,320.8,219.7"/>
	<path class="st0" d="M422.9,159.7l-4.2,50.6l-4.9-44.3c-0.5-3.8-3.4-6.3-7.1-6.3h-12.1c-3.8,0-6.8,2.6-7.2,6.4l-4.8,44.1l-4.3-50.5
		H359l8.3,69c0.5,3.4,3.6,5.8,7.2,5.8h14.2c3.7,0,6.8-2.6,7.2-6l4.7-45.1l4.9,45.1c0.4,3.5,3.4,6,7.2,6h14.1c3.5,0,6.6-2.5,7.1-5.8
		l8.3-69H422.9z"/>
	<path class="st1" d="M100,316.7c-2.1,1.5-4.2,2.2-6.4,2.2c-4.5,0-6.7-3.2-6.7-21.5c0-21.2,2.6-22.1,8.6-22.1
		c6.5,0,11.8,0.2,17.8,0.5l1.6,0.1l1.6-14.6l-1.4-0.4c-5.9-1.9-11.3-2.6-19.9-2.6c-21,0-28.4,10.1-28.4,38.5c0,27.3,6.2,39,20.6,39
		c7.3,0,12.4-3.6,15.3-6.4l1,5h14.7v-44.6H100V316.7z"/>
	<path class="st1" d="M165,259.7h-14.5c-3.4,0-6.3,2.2-7.1,5.5l-16.3,69.3h19.7l3.6-18.7h14.6l3.6,18.7h19.6l-16.2-69.4
		C171.2,261.8,168.4,259.7,165,259.7 M162.1,300.1h-8.6l3.8-19.8c0.2-0.9,0.3-1.8,0.5-2.8c0.1,0.5,0.2,1.1,0.3,1.6L162.1,300.1z"/>
	<path class="st1" d="M239.6,299.9c7.8-3.2,8.8-11.8,8.8-18.3c0-18.9-9.9-22.8-24.8-22.8c-10.6,0-16.1,0.1-23.7,0.9l-1.5,0.2v74.6
		h19v-27.8h5.4c1.8,0,3,0.2,3.9,4.6l4.3,23.2h20l-5.1-24.3C244.8,304.6,242.2,301.6,239.6,299.9 M217.4,274.3h5.9
		c4.4,0,5.8,0.6,5.8,8.3c0,7.7-1.5,8.4-5.8,8.4h-5.9V274.3z"/>
	<path class="st1" d="M295.2,259.7h-14.5c-3.4,0-6.3,2.2-7.1,5.5l-16.3,69.3h19.7l3.6-18.7h14.6l3.6,18.7h19.6l-16.2-69.4
		C301.4,261.8,298.6,259.7,295.2,259.7 M292.3,300.1h-8.7l3.8-19.8c0.2-0.9,0.3-1.8,0.5-2.8c0.1,0.5,0.2,1.1,0.3,1.6L292.3,300.1z"
		/>
	<path class="st1" d="M359.2,316.7c-2.1,1.5-4.2,2.2-6.4,2.2c-4.5,0-6.7-3.2-6.7-21.5c0-21.2,2.6-22.1,8.6-22.1
		c6.5,0,11.8,0.2,17.8,0.5l1.6,0.1l1.6-14.6l-1.3-0.4c-5.9-1.9-11.3-2.6-19.9-2.6c-21,0-28.4,10.1-28.4,38.5c0,27.3,6.2,39,20.6,39
		c7.3,0,12.4-3.6,15.3-6.4l1,5h14.7v-44.6h-18.5V316.7z"/>
	<path class="st1" d="M436.4,318.7h-23.3c-0.8,0-1.9,0-1.9-3.7v-12h22.2v-14.8h-22.2v-9.1c0-3.6,1.1-3.6,1.9-3.6h23.3l0.9-14.9
		l-1.6-0.2c-8.3-1-19.2-1-28.9-1c-8.8,0-14.9,6.5-15,16.1v43.2c0.1,9.6,6.1,16.1,15,16.1c9.6,0,20.6,0,28.9-1l1.6-0.2L436.4,318.7z"
		/>
	<path class="st1" d="M42.1,494c0.2,1.5,0.4,2.2,0.6,3.7c-2.2,0.8-4,1.5-5.4,2.1c-2.8,1.1-3.2,2.6-1.6,6.7c1.6,4.1,2.9,4.9,5.6,3.8
		c1.2-0.5,3.4-1.4,5.5-2.6c0.8,1.4,1.1,2,1.9,3.4c-1.7,1.7-4.3,3.1-6.9,4.2c-6.8,2.8-10.2,1.3-13-5.8c-2.9-7.1-1.4-10.9,5.6-13.7
		C36.5,494.9,39.7,493.9,42.1,494"/>
	<path class="st1" d="M69,490.6c1.6,5,2.4,7.5,4,12.5c-2.1,0.7-3.1,1.1-5.2,1.8c-0.6-0.9-0.8-1.4-1.4-2.3c-0.7,1.9-2.3,4.1-5.4,5.3
		c-3.3,1.2-6.7,0.4-7.9-3.1c-0.3-0.8-0.4-1.1-0.7-1.9c-1.1-3,0.5-5.6,4.2-6.9c2.4-0.9,3.6-1.3,6.1-2.2c-0.1-0.3-0.2-0.5-0.3-0.8
		c-0.7-1.9-1.5-2.2-3.4-1.5c-1.8,0.7-4.8,1.9-7.7,3.2c-0.8-1.4-1.2-2.1-2-3.6c2.6-1.5,7.1-3.7,9.8-4.6C64,484.5,67.3,485.2,69,490.6
		 M64.7,500.3c-0.4-1.3-0.6-1.9-1-3.2c-1.5,0.5-2.3,0.8-3.8,1.4c-1.1,0.5-1.3,1.3-0.9,2.4c0.1,0.3,0.1,0.4,0.2,0.7
		c0.5,1.3,1.2,1.8,2.4,1.3C62.6,502.5,63.8,501.6,64.7,500.3"/>
	<path class="st1" d="M90,482c-0.7,0.2-1.1,0.3-1.8,0.5c-1.4,0.4-2.7,1.3-4.8,2.9c1.5,5.2,2.3,7.8,3.8,13.1c-2.7,0.8-4,1.3-6.6,2.1
		c-2.3-7.6-3.5-11.4-5.8-19c2.2-0.7,3.2-1,5.4-1.7c0.6,1,0.9,1.6,1.4,2.6c1.8-2.9,4.1-4.9,6.5-5.6c0.4-0.1,0.6-0.2,1.1-0.3
		C89.5,478.7,89.7,479.8,90,482"/>
	<path class="st1" d="M130.5,486.8c-2.2,0.5-3.2,0.7-5.4,1.2c-0.4-1.1-0.7-1.6-1.1-2.7c-0.9,2.1-2.7,4.1-6.2,5
		c-4.7,1.2-7.5-2-9.1-8.6c-1.9-7.7,0-10.7,4.8-11.9c2.2-0.5,4.4-0.6,6.3,0c-0.4-1.2-0.7-2.4-1-3.8c-0.5-2.1-0.7-3.2-1.2-5.3
		c2.8-0.7,4.2-1,7.1-1.6C127,470.2,128.2,475.7,130.5,486.8 M122.5,482.7c-0.8-3.7-1.2-5.6-2.1-9.3c-1.1-0.1-2-0.2-3.3,0.1
		c-1.9,0.5-2.5,1.5-1.3,6.4c1.1,4.6,2,5.4,3.8,5C121,484.5,121.7,483.9,122.5,482.7"/>
	<path class="st1" d="M155.1,477c0.5,1.4,0.7,2.1,1.2,3.6c-2.3,1.6-5.4,2.5-8.4,3.1c-7.4,1.4-10.7-1-12.1-8.2
		c-1.5-7.7,0.8-11,8.3-12.4c6.9-1.3,10,0.6,10.7,5.1c0.6,3.6-0.8,5.8-5.7,6.7c-2.3,0.4-3.4,0.6-5.7,1.1c0.8,2.9,2,3.4,4.5,2.9
		C149.4,478.5,152.2,477.8,155.1,477 M142.7,472.4c1.6-0.3,2.4-0.5,3.9-0.8c1.6-0.3,1.7-1.3,1.5-2.4c-0.3-1.8-1.1-2.3-3-2
		C142.7,467.7,142.1,468.7,142.7,472.4"/>
	<path class="st1" d="M180.5,464.6c0.6,5.2,0.9,7.9,1.6,13.1c-2.2,0.3-3.2,0.4-5.4,0.7c-0.4-1-0.6-1.5-0.9-2.6c-1,1.7-3,3.6-6.2,4.1
		c-3.5,0.5-6.6-1-7.1-4.7c-0.1-0.8-0.2-1.2-0.3-2c-0.5-3.2,1.5-5.4,5.3-6c2.5-0.4,3.8-0.6,6.3-0.9c0-0.4-0.1-0.5-0.1-0.9
		c-0.3-2-1-2.5-3-2.2c-1.9,0.3-5,0.9-8.1,1.6c-0.5-1.6-0.8-2.3-1.3-3.9c2.8-1,7.6-2.2,10.4-2.6C176.8,457.7,179.8,459,180.5,464.6
		 M174.6,473.3c-0.2-1.3-0.3-2-0.4-3.3c-1.6,0.2-2.4,0.3-3.9,0.6c-1.2,0.2-1.5,1-1.3,2.1c0,0.3,0.1,0.5,0.1,0.8
		c0.2,1.4,0.8,2,2.1,1.8C172.2,475,173.4,474.3,174.6,473.3"/>
	<path class="st1" d="M196.2,469.5c0.1,1.4,0.8,1.9,2.2,1.8c0.6-0.1,0.8-0.1,1.4-0.1c0.4,1.6,0.7,2.4,1.1,4.1
		c-1,0.6-3.6,1.2-4.9,1.3c-3.7,0.4-6.1-1.3-6.5-4.8c-1-9.3-1.5-13.9-2.5-23.2c2.8-0.3,4.3-0.5,7.1-0.8
		C194.9,456.5,195.3,460.8,196.2,469.5"/>
	<path class="st1" d="M224.5,469.1c0.3,1.5,0.5,2.2,0.8,3.7c-2.4,1.3-5.6,1.8-8.6,2c-7.5,0.5-10.5-2.3-11.1-9.6
		c-0.6-7.9,2.1-10.8,9.6-11.3c7-0.5,9.8,1.9,10,6.4c0.2,3.6-1.4,5.6-6.4,5.9c-2.3,0.1-3.4,0.2-5.7,0.4c0.5,3,1.6,3.6,4.1,3.4
		C218.7,469.9,221.5,469.5,224.5,469.1 M212.7,463c1.6-0.1,2.4-0.2,4-0.3c1.7-0.1,1.8-1,1.7-2.2c-0.1-1.9-0.8-2.4-2.7-2.3
		C213.3,458.3,212.5,459.2,212.7,463"/>
	<path class="st1" d="M246.6,458.2c-0.7,0-1.1,0-1.8,0c-1.4,0-2.9,0.5-5.3,1.4c0.1,5.5,0.2,8.2,0.3,13.6c-2.7,0.1-4.1,0.1-6.9,0.2
		c-0.3-8-0.4-12-0.7-19.9c2.2-0.1,3.3-0.1,5.6-0.2c0.3,1.2,0.4,1.7,0.7,2.9c2.5-2.3,5.1-3.6,7.6-3.6c0.4,0,0.7,0,1.1,0
		C247,454.8,246.8,455.9,246.6,458.2"/>
	<path class="st1" d="M271.1,453.6c-0.2,1.5-0.4,2.3-0.6,3.8c-2.5-0.1-5.1-0.2-7.5-0.3c-2.8,0-3.2,0-3.3,1.3c0,1.2,0.5,1.3,2.3,1.8
		c1.9,0.6,2.8,0.9,4.6,1.5c3.3,1,4.9,2.5,4.8,6c-0.1,4.9-2.7,6-9,5.9c-1.6,0-5.2-0.1-9.1-0.8c0.2-1.6,0.3-2.3,0.5-3.9
		c1.1,0.1,4,0.1,6.6,0.1c3.7,0,4.4-0.1,4.4-1.4c0-1.2-0.6-1.3-2.5-1.9c-1.8-0.6-2.7-0.8-4.5-1.4c-3.9-1.1-4.8-2.9-4.8-6.1
		c0-4.2,2.2-5.8,8.6-5.7C264.5,452.7,268.6,453.1,271.1,453.6"/>
	<path class="st1" d="M298.7,459.9c-0.4,6-0.7,9-1.1,14.9c-2.7-0.2-4.1-0.3-6.9-0.5c0.3-5.2,0.5-7.9,0.8-13.1
		c0.1-1.8-0.3-2.4-1.5-2.4c-1.1-0.1-2.3,0.4-4.2,1.4c-0.3,5.5-0.4,8.3-0.7,13.8c-2.7-0.2-4.1-0.2-6.9-0.3c0.5-11.3,0.7-17,1.2-28.3
		c2.9,0.1,4.3,0.2,7.2,0.4c-0.1,2.8-0.2,4.2-0.3,6.9c-0.1,1.4-0.3,2.7-0.6,3.9c2.6-1.8,5.3-2.7,7.7-2.5
		C297.2,454.2,299,456.3,298.7,459.9"/>
	<path class="st1" d="M313.3,447.4c1.5,0.2,2.1,0.8,2,2c-0.1,0.9-0.1,1.3-0.2,2.2c-0.1,1.2-0.8,1.7-2.3,1.5c-1.2-0.1-1.8-0.2-3-0.3
		c-1.4-0.1-2-0.8-1.9-1.9c0.1-0.9,0.1-1.3,0.2-2.2c0.1-1.1,0.8-1.7,2.2-1.5C311.5,447.2,312.1,447.2,313.3,447.4 M305.8,475.5
		c0.7-8,1-11.9,1.7-19.9c2.8,0.3,4.2,0.4,7,0.7c-0.8,7.9-1.2,11.9-2,19.8C309.8,475.9,308.5,475.8,305.8,475.5"/>
	<path class="st1" d="M341.8,470.2c-1.1,7.8-3.9,9.8-8.5,9.1c-2.3-0.3-4.3-1.1-5.7-2.5c-0.1,1.3-0.2,2.7-0.4,4
		c-0.2,1.9-0.4,2.9-0.6,4.8c-2.7-0.4-4-0.5-6.7-0.9c1.2-11,1.9-16.5,3.1-27.5c2.3,0.3,3.4,0.4,5.7,0.7c0.1,1.2,0.1,1.8,0.2,3
		c1.5-1.8,4.7-2.8,7.8-2.4C341.5,459.3,342.8,463.5,341.8,470.2 M334.7,469.1c0.6-4.8,0.1-6-1.7-6.3c-1.5-0.2-2.5,0.4-3.8,1.4
		c-0.5,3.6-0.7,5.5-1.1,9.1c1,0.5,1.8,1,3.2,1.2C333.2,474.8,334.1,474,334.7,469.1"/>
	<path class="st1" d="M380.6,470.3c0.2,0.9,0.1,1.9-0.1,3c-0.9,4.5-3.7,5.7-10.5,4.2c-1.1-0.2-2.1-0.5-3-0.8c-0.6,0.7-0.7,2,0.6,2.5
		c2.7,0.9,4,1.4,6.6,2.3c4,1.4,5.2,3.6,4.4,7.1c-1.1,5.1-4.2,5.6-11.4,4.1c-8.2-1.7-9.8-3.5-9-7.9c0.4-2,1.3-3,3.9-3.6
		c-1.7-2.1-0.5-5.2,1.8-6c-2-1.4-2.5-3.2-2-5.9c0.8-4.6,3.7-5.9,10.7-4.4c2.2,0.5,3.9,1,5.2,1.7c2.5,0.5,3.8,0.8,6.3,1.4
		c-0.4,1-0.6,1.5-0.9,2.5C382.1,470.4,381.6,470.4,380.6,470.3 M369.8,484.5c-1.4-0.5-2.1-0.7-3.5-1.2c-1,0.5-1.4,1-1.6,2
		c-0.4,1.9,0.3,2.4,3.3,3c3.1,0.7,4,0.5,4.3-1.3C372.6,485.6,371.9,485.3,369.8,484.5 M374.1,471.8c0.4-1.9-0.2-2.6-2.4-3.1
		c-2.3-0.5-3.1-0.1-3.4,1.9c-0.4,1.9,0.2,2.7,2.5,3.2C372.9,474.2,373.7,473.7,374.1,471.8"/>
	<path class="st1" d="M404.5,493.9c-2.1-0.6-3.2-0.9-5.3-1.5c0.1-1.1,0.1-1.7,0.1-2.8c-3,1.5-5.6,1.9-8.2,1.3
		c-3.5-0.9-4.9-3.1-4.1-6.7c1.3-5.8,2-8.7,3.3-14.5c2.8,0.7,4.2,1,7,1.7c-1.2,5.1-1.8,7.6-3,12.7c-0.5,1.7-0.1,2.4,1.1,2.7
		c1.1,0.3,2.1,0.1,3.9-0.5c1.3-5.4,2-8.1,3.3-13.5c2.8,0.7,4.2,1.1,6.9,1.9C407.5,482.3,406.5,486.2,404.5,493.9"/>
	<path class="st1" d="M430,486c-0.7-0.2-1-0.3-1.7-0.6c-1.4-0.4-2.9-0.5-5.5-0.3c-1.5,5.2-2.3,7.8-3.8,13.1c-2.7-0.8-4-1.2-6.7-2
		c2.1-7.7,3.2-11.5,5.3-19.2c2.2,0.6,3.2,1,5.4,1.6c-0.1,1.2-0.1,1.8-0.2,3c3.1-1.4,6-1.8,8.4-1c0.4,0.1,0.6,0.2,1.1,0.3
		C431.3,482.9,430.9,483.9,430,486"/>
	<path class="st1" d="M450.6,508.9c-2.1-0.8-3.1-1.2-5.2-1.9c0.1-1.1,0.2-1.7,0.4-2.8c-3.1,1.2-5.7,1.4-8.4,0.5
		c-3.4-1.2-4.7-3.6-3.6-7.1c1.8-5.7,2.7-8.5,4.4-14.2c2.7,0.9,4.1,1.4,6.8,2.3c-1.6,5-2.4,7.5-4.1,12.4c-0.6,1.6-0.3,2.4,0.9,2.8
		c1,0.4,2.1,0.2,4-0.2c1.8-5.3,2.7-7.9,4.4-13.1c2.7,1,4.1,1.5,6.8,2.5C454.5,497.7,453.2,501.4,450.6,508.9"/>
	<path class="st1" d="M481.4,500.1c-0.7,1.3-1.1,2-1.9,3.4c-2.4-1.1-4.8-2.1-7-3c-2.6-1.1-3.1-1.3-3.5,0c-0.4,1.1,0.1,1.4,1.6,2.6
		c1.6,1.2,2.3,1.9,3.9,3.1c2.8,2.2,3.8,4.1,2.5,7.4c-1.8,4.6-4.7,4.6-10.6,2.1c-1.5-0.6-4.9-2.1-8.4-4.1c0.7-1.4,1.1-2.1,1.8-3.5
		c1,0.5,3.8,1.6,6.2,2.6c3.5,1.4,4.2,1.5,4.7,0.3c0.4-1.1-0.2-1.5-1.7-2.7c-1.5-1.2-2.3-1.8-3.8-3c-3.3-2.5-3.6-4.5-2.5-7.5
		c1.4-3.9,4.1-4.6,10.2-2.1C475.5,496.8,479.2,498.7,481.4,500.1"/>
	<path class="st2" d="M38.7,492.4c0.2,1.5,0.4,2.3,0.6,3.8c-2.2,0.8-4,1.5-5.4,2.1c-2.8,1.1-3.2,2.6-1.6,6.7
		c1.6,4.1,2.9,4.9,5.6,3.8c1.2-0.5,3.4-1.4,5.5-2.6c0.8,1.4,1.1,2,1.9,3.4c-1.7,1.7-4.3,3.1-6.9,4.2c-6.8,2.8-10.2,1.3-13-5.8
		c-2.9-7.1-1.4-10.9,5.6-13.7C33,493.3,36.2,492.4,38.7,492.4"/>
	<path class="st2" d="M65.5,489c1.6,5,2.4,7.5,4,12.5c-2.1,0.7-3.1,1.1-5.2,1.8c-0.6-0.9-0.8-1.4-1.4-2.3c-0.7,1.9-2.3,4.1-5.4,5.3
		c-3.3,1.2-6.7,0.4-7.9-3.1c-0.3-0.8-0.4-1.1-0.7-1.9c-1.1-3,0.5-5.6,4.2-6.9c2.4-0.9,3.6-1.3,6.1-2.2c-0.1-0.3-0.2-0.5-0.3-0.8
		c-0.7-1.9-1.5-2.2-3.4-1.5c-1.8,0.7-4.8,1.9-7.7,3.2c-0.8-1.4-1.2-2.1-2-3.6c2.6-1.5,7.1-3.7,9.8-4.7C60.6,483,63.8,483.7,65.5,489
		 M61.3,498.7c-0.4-1.3-0.6-1.9-1-3.2c-1.5,0.5-2.3,0.8-3.8,1.4c-1.1,0.5-1.3,1.3-0.9,2.4c0.1,0.3,0.1,0.4,0.2,0.7
		c0.5,1.3,1.2,1.8,2.4,1.3C59.2,500.9,60.3,500,61.3,498.7"/>
	<path class="st2" d="M86.5,480.4c-0.7,0.2-1.1,0.3-1.8,0.5c-1.4,0.4-2.7,1.3-4.8,2.9c1.5,5.2,2.3,7.8,3.8,13.1
		c-2.7,0.8-4,1.3-6.6,2.1c-2.3-7.6-3.5-11.4-5.8-19c2.1-0.7,3.2-1,5.4-1.7c0.6,1,0.9,1.6,1.4,2.6c1.8-2.9,4.1-4.9,6.5-5.6
		c0.4-0.1,0.6-0.2,1.1-0.3C86,477.1,86.2,478.2,86.5,480.4"/>
	<path class="st2" d="M127.1,485.3c-2.2,0.5-3.2,0.7-5.4,1.2c-0.5-1.1-0.7-1.6-1.1-2.7c-0.9,2.1-2.7,4.1-6.2,5
		c-4.7,1.2-7.5-2-9.1-8.6c-1.9-7.7,0-10.7,4.8-11.9c2.2-0.6,4.4-0.6,6.3,0c-0.4-1.2-0.7-2.5-1-3.8c-0.5-2.1-0.7-3.2-1.2-5.3
		c2.8-0.7,4.2-1,7.1-1.6C123.6,468.7,124.8,474.2,127.1,485.3 M119.1,481.1c-0.8-3.7-1.2-5.6-2.1-9.3c-1.1-0.1-2-0.2-3.3,0.1
		c-1.9,0.5-2.5,1.5-1.3,6.4c1.1,4.6,2,5.4,3.8,5C117.5,482.9,118.2,482.3,119.1,481.1"/>
	<path class="st2" d="M151.7,475.5c0.5,1.4,0.7,2.1,1.2,3.6c-2.3,1.5-5.4,2.5-8.4,3.1c-7.4,1.4-10.7-1-12.1-8.2
		c-1.5-7.7,0.8-11,8.3-12.4c6.9-1.3,10,0.6,10.7,5.1c0.6,3.6-0.8,5.8-5.7,6.7c-2.3,0.4-3.4,0.6-5.7,1.1c0.8,2.9,2,3.4,4.5,2.9
		C146,477,148.8,476.3,151.7,475.5 M139.2,470.9c1.6-0.3,2.4-0.5,3.9-0.8c1.6-0.3,1.7-1.3,1.5-2.4c-0.3-1.8-1.1-2.3-3-2
		C139.3,466.2,138.6,467.2,139.2,470.9"/>
	<path class="st2" d="M177,463c0.6,5.2,1,7.9,1.6,13.1c-2.2,0.3-3.2,0.4-5.4,0.7c-0.4-1-0.6-1.5-0.9-2.6c-1.1,1.7-3,3.6-6.2,4.1
		c-3.5,0.5-6.6-1-7.1-4.7c-0.1-0.8-0.2-1.2-0.3-2c-0.5-3.2,1.5-5.4,5.3-6c2.5-0.4,3.8-0.6,6.3-0.9c0-0.4-0.1-0.5-0.1-0.9
		c-0.3-2-1-2.5-3-2.2c-1.9,0.3-5,0.9-8.1,1.6c-0.5-1.6-0.8-2.3-1.3-3.9c2.8-1,7.6-2.2,10.4-2.6C173.4,456.1,176.4,457.5,177,463
		 M171.1,471.7c-0.2-1.3-0.3-2-0.4-3.3c-1.6,0.2-2.4,0.3-3.9,0.6c-1.2,0.2-1.5,1-1.3,2.1c0,0.3,0.1,0.5,0.1,0.8
		c0.2,1.4,0.8,2,2.1,1.8C168.7,473.5,170,472.8,171.1,471.7"/>
	<path class="st2" d="M192.7,467.9c0.1,1.4,0.8,2,2.2,1.8c0.6-0.1,0.8-0.1,1.4-0.1c0.4,1.6,0.7,2.5,1.1,4.1c-1,0.6-3.6,1.2-4.9,1.3
		c-3.7,0.4-6.1-1.3-6.5-4.8c-1-9.3-1.5-13.9-2.5-23.2c2.8-0.3,4.3-0.5,7.1-0.8C191.5,454.9,191.9,459.3,192.7,467.9"/>
	<path class="st2" d="M221,467.5c0.3,1.5,0.5,2.2,0.8,3.7c-2.4,1.3-5.6,1.8-8.7,2c-7.5,0.5-10.5-2.3-11.1-9.6
		c-0.6-7.9,2.1-10.8,9.6-11.3c7-0.5,9.8,1.8,10,6.4c0.2,3.6-1.4,5.6-6.4,5.9c-2.3,0.1-3.4,0.2-5.7,0.4c0.5,3,1.6,3.6,4.1,3.4
		C215.3,468.3,218.1,468,221,467.5 M209.3,461.4c1.6-0.1,2.4-0.2,4-0.3c1.7-0.1,1.8-1,1.7-2.2c-0.1-1.9-0.8-2.4-2.7-2.3
		C209.8,456.8,209.1,457.7,209.3,461.4"/>
	<path class="st2" d="M243.2,456.6c-0.7,0-1.1,0-1.8,0c-1.4,0-2.9,0.5-5.3,1.4c0.1,5.5,0.2,8.2,0.3,13.6c-2.8,0.1-4.1,0.1-6.9,0.2
		c-0.3-8-0.4-12-0.7-19.9c2.2-0.1,3.3-0.1,5.6-0.2c0.3,1.2,0.4,1.7,0.7,2.9c2.5-2.3,5.1-3.6,7.6-3.6c0.4,0,0.7,0,1.1,0
		C243.5,453.3,243.4,454.4,243.2,456.6"/>
	<path class="st2" d="M267.6,452c-0.2,1.5-0.4,2.3-0.6,3.8c-2.5-0.1-5.1-0.2-7.5-0.3c-2.8,0-3.2,0-3.3,1.3c0,1.2,0.5,1.3,2.3,1.8
		c1.9,0.6,2.8,0.9,4.6,1.5c3.3,1,4.9,2.5,4.8,6c-0.1,4.9-2.7,6-9,5.9c-1.6,0-5.2-0.1-9.1-0.8c0.2-1.6,0.3-2.3,0.5-3.9
		c1.1,0.1,4,0.1,6.6,0.1c3.7,0,4.4-0.1,4.4-1.4c0-1.2-0.6-1.3-2.5-1.9c-1.8-0.6-2.7-0.8-4.5-1.4c-3.9-1.1-4.8-2.9-4.8-6.1
		c0-4.2,2.2-5.8,8.6-5.6C261.1,451.1,265.2,451.5,267.6,452"/>
	<path class="st2" d="M295.3,458.3c-0.4,6-0.7,9-1.1,14.9c-2.7-0.2-4.1-0.3-6.9-0.5c0.3-5.2,0.5-7.9,0.8-13.1
		c0.1-1.8-0.3-2.4-1.5-2.4c-1.1-0.1-2.3,0.4-4.2,1.4c-0.3,5.5-0.4,8.3-0.7,13.8c-2.7-0.2-4.1-0.2-6.9-0.3c0.5-11.3,0.7-17,1.2-28.3
		c2.9,0.1,4.3,0.2,7.2,0.4c-0.1,2.8-0.2,4.1-0.3,6.9c-0.1,1.4-0.3,2.7-0.6,3.9c2.6-1.8,5.3-2.7,7.7-2.5
		C293.7,452.6,295.6,454.7,295.3,458.3"/>
	<path class="st2" d="M309.9,445.8c1.5,0.1,2.1,0.8,2,2c-0.1,0.9-0.1,1.3-0.2,2.2c-0.1,1.2-0.8,1.7-2.3,1.5c-1.2-0.1-1.8-0.2-3-0.3
		c-1.4-0.1-2-0.8-1.9-1.9c0.1-0.9,0.1-1.3,0.2-2.2c0.1-1.1,0.8-1.7,2.2-1.5C308,445.6,308.6,445.7,309.9,445.8 M302.3,474
		c0.7-7.9,1-11.9,1.7-19.9c2.8,0.3,4.2,0.4,7,0.7c-0.8,7.9-1.2,11.9-2,19.8C306.4,474.4,305,474.2,302.3,474"/>
	<path class="st2" d="M338.4,468.6c-1.1,7.8-3.9,9.8-8.5,9.1c-2.3-0.3-4.3-1.1-5.7-2.5c-0.1,1.3-0.2,2.7-0.4,4
		c-0.2,1.9-0.4,2.9-0.6,4.8c-2.7-0.4-4-0.5-6.7-0.9c1.2-11,1.9-16.5,3.1-27.5c2.3,0.3,3.4,0.4,5.7,0.7c0.1,1.2,0.1,1.8,0.2,3
		c1.5-1.8,4.7-2.8,7.8-2.4C338,457.8,339.4,462,338.4,468.6 M331.3,467.6c0.6-4.8,0.1-6-1.7-6.3c-1.5-0.2-2.5,0.4-3.8,1.4
		c-0.5,3.6-0.7,5.5-1.1,9.1c1,0.5,1.8,1,3.2,1.2C329.8,473.3,330.6,472.5,331.3,467.6"/>
	<path class="st2" d="M377.2,468.7c0.2,0.9,0.1,1.9-0.1,3c-0.9,4.5-3.7,5.7-10.5,4.2c-1.1-0.2-2.1-0.5-3-0.8c-0.6,0.8-0.7,2,0.6,2.5
		c2.7,0.9,4,1.3,6.6,2.3c4,1.4,5.2,3.6,4.4,7.1c-1.1,5-4.2,5.6-11.4,4.1c-8.2-1.7-9.8-3.5-9-7.9c0.4-2,1.3-3,3.9-3.6
		c-1.7-2.1-0.5-5.2,1.8-6c-2-1.4-2.5-3.3-2-5.9c0.8-4.6,3.7-5.9,10.7-4.4c2.2,0.5,3.9,1,5.2,1.7c2.5,0.6,3.8,0.8,6.3,1.4
		c-0.4,1-0.6,1.5-0.9,2.5C378.6,468.9,378.1,468.8,377.2,468.7 M366.3,483c-1.4-0.5-2.1-0.7-3.5-1.2c-1,0.5-1.4,1-1.6,2
		c-0.4,1.9,0.3,2.4,3.3,3c3.1,0.7,4,0.5,4.3-1.3C369.2,484,368.4,483.7,366.3,483 M370.7,470.3c0.4-1.9-0.2-2.6-2.4-3.1
		c-2.3-0.5-3.1-0.1-3.4,1.9c-0.4,1.9,0.2,2.7,2.5,3.2C369.5,472.7,370.3,472.2,370.7,470.3"/>
	<path class="st2" d="M401.1,492.3c-2.1-0.6-3.2-0.9-5.3-1.5c0.1-1.1,0.1-1.7,0.1-2.9c-3,1.5-5.6,2-8.2,1.3
		c-3.5-0.9-4.9-3.1-4.1-6.7c1.3-5.8,2-8.7,3.3-14.5c2.8,0.7,4.2,1,7,1.7c-1.2,5.1-1.8,7.6-3,12.7c-0.5,1.7-0.1,2.4,1.1,2.7
		c1.1,0.3,2.1,0.1,3.9-0.5c1.3-5.4,2-8.1,3.3-13.5c2.8,0.7,4.2,1.1,6.9,1.9C404.1,480.8,403.1,484.6,401.1,492.3"/>
	<path class="st2" d="M426.6,484.4c-0.7-0.2-1-0.3-1.8-0.6c-1.4-0.4-2.9-0.5-5.5-0.3c-1.5,5.2-2.3,7.8-3.8,13.1
		c-2.7-0.8-4-1.2-6.7-2c2.1-7.7,3.2-11.5,5.3-19.2c2.2,0.6,3.2,1,5.4,1.6c-0.1,1.2-0.1,1.8-0.2,3c3.1-1.4,6-1.8,8.4-1
		c0.4,0.1,0.6,0.2,1.1,0.3C427.9,481.4,427.4,482.4,426.6,484.4"/>
	<path class="st2" d="M447.1,507.4c-2.1-0.8-3.1-1.2-5.2-1.9c0.1-1.1,0.2-1.7,0.4-2.8c-3.1,1.2-5.7,1.4-8.4,0.5
		c-3.4-1.2-4.7-3.6-3.6-7.1c1.8-5.7,2.7-8.5,4.4-14.2c2.7,0.9,4.1,1.4,6.8,2.4c-1.6,5-2.4,7.5-4.1,12.4c-0.6,1.6-0.3,2.4,0.9,2.8
		c1,0.4,2.1,0.2,4-0.2c1.8-5.3,2.7-7.9,4.4-13.1c2.7,1,4.1,1.5,6.8,2.5C451,496.1,449.7,499.9,447.1,507.4"/>
	<path class="st2" d="M477.9,498.6c-0.7,1.3-1.1,2-1.9,3.4c-2.4-1.1-4.8-2.1-7-3c-2.6-1.1-3.1-1.3-3.5,0c-0.4,1.1,0.1,1.4,1.6,2.6
		c1.6,1.2,2.3,1.9,3.9,3.1c2.8,2.2,3.8,4.1,2.5,7.3c-1.8,4.6-4.6,4.6-10.6,2.1c-1.5-0.6-4.9-2.1-8.4-4.1c0.7-1.4,1.1-2.1,1.8-3.5
		c1,0.5,3.8,1.6,6.2,2.6c3.5,1.4,4.2,1.5,4.7,0.3c0.4-1.1-0.2-1.5-1.7-2.7c-1.5-1.2-2.3-1.8-3.8-3c-3.3-2.5-3.6-4.5-2.5-7.5
		c1.4-3.9,4.1-4.6,10.2-2.1C472,495.3,475.8,497.2,477.9,498.6"/>
</g>
</svg>
